<?xml version="1.0" encoding="utf-8"?>
<!-- Generator: Adobe Illustrator 26.0.2, SVG Export Plug-In . SVG Version: 6.00 Build 0)  -->
<svg version="1.1" id="Layer_1" xmlns="http://www.w3.org/2000/svg" xmlns:xlink="http://www.w3.org/1999/xlink" x="0px" y="0px"
	 viewBox="0 0 36 24" style="enable-background:new 0 0 36 24;" xml:space="preserve">
<style type="text/css">
	.st0{fill:#0971AB;}
</style>
<g transform="translate(-53.142 144.087)">
	<path class="st0" d="M66.1-130.8c0.7,0.4,1.4,0.7,2.2,0.9c0.6,0.1,1.2,0.2,1.8,0.3c0.4,0,0.7,0.1,1.1,0.1l0.4,0c0,0,0.1,0,0.1,0
		h0.2h0.2c0.1,0,0.2,0,0.3,0c0.4,0,0.8-0.1,1.3-0.1c0.5-0.1,0.9-0.1,1.3-0.2c0.4-0.1,0.8-0.2,1.1-0.3c0.5-0.2,1-0.4,1.5-0.7
		c0.3-0.2,0.5-0.4,0.7-0.7c0.1-0.2,0.2-0.4,0.1-0.7c-0.1-0.3-0.2-0.5-0.4-0.7c-0.3-0.3-0.7-0.6-1.1-0.7c-0.4-0.2-0.8-0.3-1.2-0.5
		l-0.2,0c-0.3-0.1-0.5-0.1-0.7-0.2c-0.4-0.1-0.8-0.2-1.2-0.2c-0.5-0.1-0.9-0.1-1.4-0.1c-0.1,0-0.3,0-0.4,0c-0.3,0-0.7,0-1,0
		c-0.3,0-0.6,0-1,0.1c-0.5,0.1-1,0.1-1.5,0.3c-0.6,0.1-1.2,0.3-1.7,0.6c-0.5,0.2-0.9,0.5-1.2,0.8c-0.2,0.2-0.3,0.4-0.3,0.6
		c-0.1,0.3,0,0.6,0.2,0.9C65.5-131.2,65.8-131,66.1-130.8z"/>
	<path class="st0" d="M65.1-126.6c0.1,0.3,0.3,0.6,0.6,0.8c0.3,0.3,0.7,0.5,1.1,0.6c0.5,0.3,1.1,0.4,1.7,0.6
		c0.4,0.1,0.7,0.2,1.1,0.2c0.5,0.1,0.9,0.1,1.4,0.1c0.2,0,0.4,0,0.6,0H72c0.5,0,1,0,1.5-0.1c0.6-0.1,1.2-0.2,1.8-0.4
		c0.6-0.2,1.2-0.4,1.8-0.7c0.4-0.2,0.7-0.5,0.9-0.8c0.1-0.2,0.2-0.4,0.2-0.6c0-0.2,0-0.4,0-0.6c-0.4,0.3-0.8,0.5-1.2,0.7
		c-0.5,0.2-1,0.4-1.5,0.5c-0.3,0.1-0.6,0.2-1,0.2s-0.8,0.1-1.2,0.2c-0.4,0-0.7,0.1-1.1,0.1c-0.2,0-0.5,0-0.7,0c-0.2,0-0.4,0-0.6,0
		c-0.4,0-0.8,0-1.2-0.1s-0.8-0.1-1.2-0.2c-0.4-0.1-0.7-0.1-1.1-0.2c-0.6-0.2-1.2-0.4-1.7-0.7c-0.3-0.2-0.6-0.3-0.9-0.6
		c0,0.2,0,0.4,0,0.6C65-126.8,65-126.7,65.1-126.6z"/>
	<path class="st0" d="M75.9-128.9c-0.7,0.2-1.4,0.4-2.2,0.5c-0.7,0.1-1.3,0.1-1.8,0.1c-0.1,0-0.2,0-0.3,0c-0.5,0-0.9,0-1.3-0.1
		c-0.4,0-0.9-0.1-1.3-0.1l-0.1,0c-0.5-0.1-1-0.2-1.5-0.3c-0.5-0.2-1.1-0.4-1.6-0.6c-0.3-0.2-0.6-0.3-0.9-0.6c0,0.2,0,0.4,0,0.6
		c0,0.1,0,0.3,0.1,0.4c0.2,0.3,0.4,0.6,0.8,0.8c0.6,0.4,1.2,0.7,1.8,0.8c0.6,0.2,1.2,0.3,1.9,0.4c0.7,0.1,1.3,0.1,2,0.1h0
		c0.4,0,0.8,0,1.2-0.1c0.4,0,0.9-0.1,1.4-0.2s0.9-0.2,1.4-0.3c0.5-0.1,1-0.3,1.4-0.6c0.4-0.2,0.7-0.5,1-0.8c0.2-0.2,0.3-0.4,0.3-0.6
		c0-0.2,0-0.4,0-0.6c-0.1,0.1-0.3,0.2-0.4,0.3C77.3-129.4,76.6-129.1,75.9-128.9z"/>
	<path class="st0" d="M76.2-123.7c-0.5,0.2-1.1,0.3-1.6,0.4c-0.4,0.1-0.9,0.1-1.2,0.2c-0.5,0-1,0.1-1.5,0.1c-0.1,0-0.2,0-0.2,0
		c-0.3,0-0.6,0-0.9,0c-0.4,0-0.8-0.1-1.3-0.1c-0.5-0.1-1-0.2-1.5-0.3c-0.6-0.1-1.1-0.3-1.6-0.6c-0.5-0.2-0.9-0.4-1.3-0.7
		c0,0.2,0,0.3,0,0.5c0,0.2,0.1,0.4,0.2,0.6c0.2,0.3,0.5,0.6,0.8,0.8c0.7,0.4,1.4,0.7,2.2,0.9c0.4,0.1,0.9,0.2,1.3,0.3l0.1,0
		c0.5,0.1,1.1,0.1,1.6,0.1c0.2,0,0.3,0,0.5,0c0.4,0,0.7,0,1.1,0c0.4,0,0.8-0.1,1.2-0.1c0.6-0.1,1.1-0.2,1.7-0.4
		c0.5-0.1,0.9-0.3,1.4-0.6c0.4-0.2,0.7-0.5,1-0.8c0.1-0.2,0.2-0.4,0.3-0.6c0-0.2,0-0.4,0-0.6c-0.1,0.1-0.3,0.2-0.5,0.3
		C77.3-124.2,76.7-123.9,76.2-123.7z"/>
	<path class="st0" d="M82.3-137c-1.5-4.3-5.6-7.2-10.2-7.1c-3.4,0-6.5,1.5-8.6,4.2c-0.6-0.1-1.1-0.2-1.7-0.2
		c-4.6-0.1-8.5,3.6-8.6,8.2c0.1,4.4,3.6,8,8,8.2c0.1,0,0.1,0,0.2,0h2.2c0,0.1,0,0.2,0,0.2c0.1,0.3,0.2,0.5,0.3,0.8
		c0.3,0.4,0.7,0.8,1.2,1.1c0.8,0.5,1.7,0.9,2.7,1.1c0.5,0.1,1,0.2,1.5,0.3l0.1,0c0.6,0.1,1.2,0.1,1.9,0.2c0.2,0,0.4,0,0.6,0
		c0.5,0,0.9,0,1.3-0.1h0c0.4,0,0.9-0.1,1.3-0.2c0.7-0.1,1.3-0.3,1.9-0.5c0.6-0.2,1.2-0.4,1.7-0.7c0.5-0.3,1-0.7,1.4-1.1
		c0.2-0.3,0.3-0.5,0.4-0.9c0-0.1,0.1-0.2,0.1-0.3h2.5c0,0,0.1,0,0.1,0c1.8-0.1,3.4-0.8,4.7-2c1.3-1.2,2-2.9,2-4.6
		C89.1-134.1,86-137,82.3-137z M60.3-126.9l-3-4.2h1.6v-4l2.9,0v4h1.5L60.3-126.9z M79.6-124c0,0.1,0,0.1-0.1,0.2
		c-0.1,0.3-0.2,0.6-0.4,0.8c-0.3,0.4-0.8,0.8-1.3,1c-0.5,0.3-1.1,0.5-1.6,0.7c-0.6,0.2-1.3,0.3-1.9,0.4c-0.4,0.1-0.9,0.1-1.3,0.2
		c-0.4,0-0.8,0.1-1.2,0.1c-0.2,0-0.4,0-0.5,0c-0.6,0-1.2-0.1-1.8-0.2l-0.1,0c-0.5-0.1-1-0.2-1.5-0.3c-0.9-0.2-1.8-0.5-2.6-1
		c-0.4-0.3-0.8-0.6-1.1-1c-0.1-0.2-0.2-0.4-0.3-0.7c0,0,0-0.1,0-0.1v-0.2c0,0,0,0,0,0c0-0.3,0-0.6,0-0.9v-7.5c0,0,0-0.1,0-0.1v-0.4
		c0-0.1,0.1-0.2,0.2-0.3c0.1-0.2,0.3-0.4,0.4-0.6c0.4-0.4,1-0.8,1.5-1c0.6-0.3,1.3-0.5,2-0.7c0.5-0.1,1.1-0.2,1.7-0.3
		c0.4,0,0.8-0.1,1.1-0.1c0.3,0,0.7,0,1.1,0c0.2,0,0.3,0,0.5,0c0.5,0,1,0.1,1.5,0.1c0.4,0,0.8,0.1,1.3,0.2c0.3,0.1,0.6,0.1,0.9,0.2
		l0.2,0c0.5,0.1,0.9,0.3,1.4,0.5c0.5,0.2,1,0.5,1.4,0.9c0.2,0.2,0.4,0.4,0.5,0.7c0.1,0,0.2,0.2,0.2,0.3L79.6-124z M81.9-126.2v-4
		h-1.5l3-4.2l3,4.2h-1.6v4L81.9-126.2z"/>
</g>
</svg>
