<?xml version="1.0" encoding="utf-8"?>
<!-- Generator: Adobe Illustrator 26.0.2, SVG Export Plug-In . SVG Version: 6.00 Build 0)  -->
<svg version="1.1" id="Layer_1" xmlns="http://www.w3.org/2000/svg" xmlns:xlink="http://www.w3.org/1999/xlink" x="0px" y="0px"
	 viewBox="0 0 24 24" style="enable-background:new 0 0 24 24;" xml:space="preserve">
<style type="text/css">
	.st0{fill:#0971AB;}
</style>
<path class="st0" d="M20,19V7H4v12H20 M20,3c1.1,0,2,0.9,2,2v14c0,1.1-0.9,2-2,2H4c-1.1,0-2-0.9-2-2V5c0-1.1,0.9-2,2-2H20 M13,17v-2
	h5v2H13 M9.6,13l-4-4h2.8l3.3,3.3c0.4,0.4,0.4,1,0,1.4L8.4,17H5.6L9.6,13z"/>
</svg>
