<svg id="a71db79d-c5e3-4e70-8793-c8fa6acf215f" data-name="Layer 1" xmlns="http://www.w3.org/2000/svg" viewBox="0 0 70.84 57.88"><path d="M68.47,31.11c-3.62-.19-7.24-.28-10.85-.42l-3-.08c.05-.55.08-1.1.08-1.67a19.31,19.31,0,1,0-38.62,0c0,.17,0,.33,0,.5l-2.79.07c-3.65.14-7.31.24-11,.43,3.65.19,7.31.29,11,.42l2.85.08a19.29,19.29,0,0,0,38.34,1.18l3.09-.08C61.23,31.4,64.85,31.31,68.47,31.11Zm-33-18A15.81,15.81,0,0,1,51.24,28.94c0,.54,0,1.06-.08,1.58-1.23,0-2.45-.07-3.68-.09l.07-3.56V26.1h-.79L39.86,26H39v.89l-.06,7.37-5.16,0c0-3.84,0-7.68-.07-11.51l0-.9H32.8l-8.49.06h-.84v.83l.11,6.54-4,.09c0-.13,0-.26,0-.4A15.81,15.81,0,0,1,35.42,13.13Zm0,31.63A15.82,15.82,0,0,1,19.69,30.54l4.62.1.69,0v-.72l.11-6.4,6.78.05c0,3.86,0,7.72-.07,11.59v1h1l7.06,0h.94v-.93l-.06-7.45L46,27.66l.06,3.45,0,.72.69,0c1.4,0,2.8-.07,4.21-.1A15.81,15.81,0,0,1,35.42,44.76Z" fill="#0971ab"/></svg>