<?xml version="1.0" encoding="utf-8"?>
<!-- Generator: Adobe Illustrator 26.0.2, SVG Export Plug-In . SVG Version: 6.00 Build 0)  -->
<svg version="1.1" id="Layer_1" xmlns="http://www.w3.org/2000/svg" xmlns:xlink="http://www.w3.org/1999/xlink" x="0px" y="0px"
	 viewBox="0 0 24 24" style="enable-background:new 0 0 24 24;" xml:space="preserve">
<style type="text/css">
	.st0{fill:none;}
	.st1{fill:#0971AB;}
</style>
<path class="st0" d="M0,0h24v24H0V0z"/>
<path class="st1" d="M19,2H5C3.9,2,3,2.9,3,4v14c0,1.1,0.9,2,2,2h4l3,3l3-3h4c1.1,0,2-0.9,2-2V4C21,2.9,20.1,2,19,2z M13,18h-2v-2h2
	V18z M15.1,10.2l-0.9,0.9C13.4,11.9,13,12.5,13,14h-2v-0.5c0-1.1,0.4-2.1,1.2-2.8l1.2-1.3C13.8,9.1,14,8.6,14,8c0-1.1-0.9-2-2-2
	s-2,0.9-2,2H8c0-2.2,1.8-4,4-4s4,1.8,4,4C16,8.9,15.6,9.7,15.1,10.2z"/>
</svg>
