<?xml version="1.0" encoding="utf-8"?>
<!-- Generator: Adobe Illustrator 25.4.1, SVG Export Plug-In . SVG Version: 6.00 Build 0)  -->
<svg version="1.1" id="Layer_1" xmlns="http://www.w3.org/2000/svg" xmlns:xlink="http://www.w3.org/1999/xlink" x="0px" y="0px"
	 viewBox="0 0 275.8 87.6" style="enable-background:new 0 0 275.8 87.6;" xml:space="preserve">
<style type="text/css">
	.st0{fill:#991B1E;}
	.st1{fill:url(#SVGID_1_);}
</style>
<g id="Layer_2_00000002345003680731727880000015040511464820500137_">
	<g id="Layer_3">
		<path class="st0" d="M195.2,15.5l-6.4,36.5h-15.6c-3.5,0.1-6.5-2.7-6.5-6.2c0-0.5,0-1,0.1-1.5l2.3-13.3c0.9-4.4,4.7-7.6,9.1-7.8
			h7.8l1.1-6.3c0.2-0.6-0.1-1.3-0.7-1.5c-0.2-0.1-0.3-0.1-0.5-0.1h-10.7l1.4-7.8h12.2c3.5-0.1,6.4,2.6,6.6,6.1
			C195.3,14.4,195.3,15,195.2,15.5z M184.7,31.1h-6.3c-0.9,0-1.7,0.6-1.8,1.5l-1.8,10.3c-0.1,0.7,0.3,1.3,1,1.5c0.1,0,0.2,0,0.3,0
			h6.3L184.7,31.1z"/>
		<path class="st0" d="M113.6,15.5l-4.8,27.3c-0.1,0.7,0.3,1.3,1,1.5c0.1,0,0.2,0,0.3,0h6.3l-1.4,7.8h-7.8c-3.5,0.1-6.4-2.6-6.6-6.1
			c0-0.6,0-1.1,0.2-1.7L108.5,0h7.8l-1.4,7.8h7.8l-1.4,7.8H113.6z"/>
		<path class="st0" d="M141.5,15.5h-6.3c-0.9,0-1.6,0.6-1.8,1.5l-6.1,35h-7.8l6.4-36.5c0.9-4.4,4.7-7.6,9.1-7.8h7.8L141.5,15.5z"/>
		<path class="st0" d="M167.7,15.5l-3.2,18.3h-15.6l-1.6,9.1c-0.2,0.6,0.2,1.3,0.9,1.4c0.1,0,0.2,0,0.3,0h12.3l-1.4,7.7h-13.6
			c-3.5,0.1-6.5-2.7-6.5-6.2c0-0.5,0-1,0.1-1.5l5-28.8c0.9-4.4,4.7-7.6,9.1-7.8h7.8c3.5-0.1,6.4,2.6,6.6,6.1
			C167.9,14.4,167.9,15,167.7,15.5z M159.8,16.9c0.1-0.6-0.2-1.2-0.8-1.3c-0.1,0-0.2,0-0.3,0h-5.1c-0.8,0-1.4,0.6-1.6,1.4l-1.6,9.1
			h7.8L159.8,16.9z"/>
		<path class="st0" d="M55.4,15.5l-3.2,18.3H36.5L35,42.9c-0.1,0.6,0.2,1.3,0.9,1.4c0.1,0,0.2,0,0.3,0h12.3L47,52.1H33.4
			c-3.5,0.1-6.5-2.7-6.5-6.2c0-0.5,0-1,0.1-1.5l5-28.8c0.9-4.4,4.7-7.6,9.1-7.8H49c3.5-0.1,6.4,2.6,6.6,6.1
			C55.6,14.4,55.5,15,55.4,15.5z M47.4,16.9c0.1-0.6-0.2-1.2-0.8-1.3c-0.1,0-0.2,0-0.3,0h-5.1c-0.8,0-1.4,0.6-1.6,1.4L37.9,26h7.8
			L47.4,16.9z"/>
		<path class="st0" d="M29.7,0l-9.3,53.2c-1.1,6-6.7,8.2-12.7,8.2H0l1.9-8.2h8.8c1.2,0,2.2-0.9,2.4-2.1l9-51.2H29.7z"/>
		<path class="st0" d="M232.6,7.6c3.5-0.1,6.4,2.6,6.6,6.1c0,0.6,0,1.1-0.2,1.7l-6.4,36.5h-7.8l6.1-35c0.2-0.6-0.2-1.3-0.9-1.5
			c-0.1,0-0.2,0-0.3,0h-6.3L217,51.9h-7.8l6.1-35c0.2-0.7-0.2-1.3-0.9-1.5c-0.1,0-0.2,0-0.3,0h-6.3l-6.4,36.5h-7.8l6.4-36.5l1.4-7.8
			L232.6,7.6z"/>
		<path class="st0" d="M248.1,7.8c0.9-4.4,4.7-7.6,9.1-7.8H270c4.3,0,6.4,3.4,5.6,7.7l-1.7,10.6c-0.6,5.5-2.7,7.6-7,7.6l-5,0.1
			c-8.6,0.1-13.7,4.5-14.4,9.3l-1.4,9h23.1l-1.4,7.8h-26.5c-3.7,0-3.8-1.9-3.2-5.8l1.8-10.9c3.6-17.7,20.2-16.9,26.4-16.9l1.6-9.4
			c0.2-0.6-0.2-1.3-0.9-1.5c-0.1,0-0.1,0-0.2,0h-11.4l-1.4,7.7h-7.2L248.1,7.8z"/>
		<path class="st0" d="M91,15.5h9.9l1.4-7.8h-9.9c-2.5,0-5,0.7-7.1,2.1c-2,1.3-3.7,3-4.9,5.1c-1.2,2-1.8,4.2-1.7,6.5
			c0.1,2.3,0.9,4.4,2.3,6.2l9,10.1c1,1.2,1,2.9,0.2,4.1c-0.8,1.4-2.2,2.3-3.8,2.4H74.5l-0.8,4.5c5.7,0.3,11.4,0.9,17,1.9
			c0.5-0.2,0.9-0.5,1.4-0.8c2-1.3,3.7-3.1,4.9-5.1c1.1-2,1.7-4.2,1.7-6.5c-0.1-2.3-0.9-4.5-2.4-6.2l-9-10.1c-1-1.2-1-2.9-0.2-4.2
			C88,16.5,89.4,15.6,91,15.5z"/>
		<path class="st0" d="M67.9,15.5h7.8l1.4-7.8h-7.8L70.7,0h-7.8l-7.8,44.3c-0.4,2.1,0.2,4.3,1.6,5.8c4.3-0.9,8.8-1.4,13.2-1.4
			l0.8-4.4h-6.3c-0.7,0-1.3-0.5-1.3-1.2c0-0.1,0-0.2,0-0.3L67.9,15.5z"/>
		
			<linearGradient id="SVGID_1_" gradientUnits="userSpaceOnUse" x1="16.8273" y1="3.7719" x2="251.1626" y2="48.6143" gradientTransform="matrix(1 0 0 -1 0 90)">
			<stop  offset="0" style="stop-color:#69090D"/>
			<stop  offset="0.18" style="stop-color:#6C0A0E"/>
			<stop  offset="0.3" style="stop-color:#750B11"/>
			<stop  offset="0.41" style="stop-color:#840E16"/>
			<stop  offset="0.5" style="stop-color:#9A121D"/>
			<stop  offset="0.59" style="stop-color:#B51726"/>
			<stop  offset="0.67" style="stop-color:#D71D31"/>
			<stop  offset="0.68" style="stop-color:#DC1E33"/>
			<stop  offset="0.75" style="stop-color:#DC2132"/>
			<stop  offset="0.81" style="stop-color:#DE2B30"/>
			<stop  offset="0.86" style="stop-color:#E03C2D"/>
			<stop  offset="0.91" style="stop-color:#E25428"/>
			<stop  offset="0.96" style="stop-color:#E67221"/>
			<stop  offset="1" style="stop-color:#EA941A"/>
		</linearGradient>
		<path class="st1" d="M1,80c25-13.8,47.2-24.1,84.3-17.9c17.9,2.8,35.6,7,53.3,10.8c22.6,4.8,45.4,9.1,68.4,5.4
			c13.7-2.2,23.6-6.3,33.9-16.1c7.1-6.7,11.5-18.1,13-24.8c-1.7,3.1-3.5,7.2-5.9,10.8c-9.8,14.5-24.3,19.9-40.7,21.3
			c-15.5,1.3-30.7-0.8-45.9-3.9c-20.9-4.4-41.7-9.5-62.7-13.6C67.1,47,51.7,42.6,1,80z"/>
	</g>
</g>
</svg>
