<svg xmlns="http://www.w3.org/2000/svg" xmlns:xlink="http://www.w3.org/1999/xlink" viewBox="0 0 199.65 39.74"><defs><linearGradient id="a" x1="36.95" y1="35.42" x2="5.21" y2="3.68" gradientUnits="userSpaceOnUse"><stop offset="0.47" stop-color="#0971ab"/><stop offset="1" stop-color="#27aae1"/></linearGradient></defs><path d="M45.14,15a1.09,1.09,0,0,0-.63.3,16.49,16.49,0,0,1-3.9,3.48c-8.39,5.5-22.1,5.69-30.63.42a15.54,15.54,0,0,1-4.66-4.27c.32-.37.66-.73,1-1.08,6.14-6.31,16.51-7.23,24.25-5.67C16.42,4.73,8,8.05,4,12.13a9.07,9.07,0,0,1-.38-1.76C9.38,4.86,22.31,3.31,26.86,4.26c-13.54-2.91-20.69.8-23.08,3A9.93,9.93,0,0,1,4.61,5C10-.35,17.13.89,21.15,1.4,17.69.29,10.38-1.67,6.1,2.79c-.29.31-.57.63-.86,1s-.37.44-.53.65c-.46.66-1,1.51-1.51,2.23-.18.31-.37.63-.55,1a10.47,10.47,0,0,0-1,3.14c-.1.25-.19.51-.27.76,0,.1-.06.2-.08.3h0v0L1,12.72H1l0,.09a8.28,8.28,0,0,1,.21-1.21L1,12.48c-.19,1.08-.32,1.77-.4,2.38,0,.33-.08.65-.11,1a9.33,9.33,0,0,0-.11,1.73s0,0,0,.06,0,.09,0,.13v-.11q0,.38.09.75a13.44,13.44,0,0,0-.44,1.74v.07a2.5,2.5,0,0,0,0,.45A9.31,9.31,0,0,0,.09,22C1,33.23,13.69,42,29.57,39.22c2.06-.36,2.47-2.19,1.56-2.75a1.92,1.92,0,0,0-1.32-.15C12.92,38.05,3.57,31.39,1.45,24.94c-.08-.21-.2-.63-.36-1.13a1.71,1.71,0,0,0,.08-.34q.12-.82.3-1.59c5.17,11.73,27,13.88,40.08,8.62,2.21-.89,1.89-3.77.61-4a2,2,0,0,0-1,.2C24.75,32.76,6.6,29.52,2,20.22a15.39,15.39,0,0,1,1.12-2.35,16.57,16.57,0,0,0,5.45,5.2c9.35,5.77,24.38,5.57,33.58-.46a17.76,17.76,0,0,0,4.26-3.82C47.46,17.06,46,14.91,45.14,15Zm-43.67.74C1.32,16,1.15,16.48,1,17a11.6,11.6,0,0,1-.1-2.14v0A7.78,7.78,0,0,1,1.5,13.1,10.09,10.09,0,0,0,1.83,15C1.7,15.2,1.58,15.45,1.47,15.69Z" fill="url(#a)"/><path d="M197.85,10a.69.69,0,0,0,.47-.68c0-.47-.33-.75-.85-.75h-.91v2.22h.37V10h.52l.53.73h.4v-.05l-.53-.72Zm-.37-.27h-.55V8.85h.52c.3,0,.49.13.49.42S197.75,9.68,197.48,9.68Z" fill="#0971ab"/><path d="M197.46,7.44a2.19,2.19,0,1,0,2.19,2.19A2.2,2.2,0,0,0,197.46,7.44Zm0,4a1.8,1.8,0,1,1,1.8-1.8A1.81,1.81,0,0,1,197.46,11.43Z" fill="#0971ab"/><path d="M64.6,31.08c-6.27,0-10.72-4.92-10.72-11.3S58.33,8.38,64.6,8.38a9.46,9.46,0,0,1,7.13,2.86l-.91,1.19A8.58,8.58,0,0,0,64.63,9.9c-5.43,0-9.12,4.53-9.12,9.88s3.69,9.78,9.12,9.78A8.47,8.47,0,0,0,70.82,27l.91,1.23A9.41,9.41,0,0,1,64.6,31.08Z" fill="#0971ab"/><path d="M91.39,8.85l-8.14,13.4v8.32h-1.6V22.21L73.54,8.85h1.88L81.83,19.6l.58,1.2h.11l.65-1.2L89.55,8.85Z" fill="#0971ab"/><path d="M95.12,8.85l7.82,18.47L110.8,8.85h2.61L104.1,30.57h-2.28L92.51,8.85Z" fill="#0971ab"/><path d="M119.24,20.76v7.46H132v2.35H116.7V8.85H132V11.2H119.24v7.21H130.1v2.35Z" fill="#0971ab"/><path d="M153.27,16.09a6.66,6.66,0,0,1-4.78,6.77V23l5.33,7v.57h-3.23l-5.43-7.2h-5.9v7.2h-3V8.85H145C150.12,8.85,153.27,11.49,153.27,16.09Zm-8.4-4.52h-5.61v9.12h5.87c3,0,5.07-1.45,5.07-4.53S148.1,11.57,144.87,11.57Z" fill="#0971ab"/><path d="M164.32,28.29c3.4,0,4.85-1.41,4.85-3.44,0-1.84-1.12-2.78-5.4-4.05-4.88-1.49-7.16-3.08-7.16-6.45,0-3.62,2.86-6,7.82-6,5.21,0,7.31,2.17,7.31,2.17L170.11,13a8.73,8.73,0,0,0-5.68-1.84c-2.76,0-4.64,1.12-4.64,3.15,0,1.63,1.27,2.46,5.32,3.65,5.4,1.56,7.28,3.48,7.28,6.78,0,3.58-2.68,6.33-8,6.33s-7.89-2.64-7.89-2.64l1.63-2.25A9.73,9.73,0,0,0,164.32,28.29Z" fill="#0971ab"/><path d="M179.92,21.09v6.3H191.8v3.18H176.34V8.85H191.8V12H179.92v6H190v3Z" fill="#0971ab"/></svg>