<svg id="a4fe3ef1-e883-4150-917d-7b70beb8adab" data-name="Layer 1" xmlns="http://www.w3.org/2000/svg" viewBox="0 0 282.34 273.09"><path d="M243.71,54.25c-10-8.36-21.6-12.92-34.83-12.92H207.8c-7.91,0-15.83-.28-23.74-.28-14,0-27.95,0-41.92,0-24.71,0-49.41.12-74.11.75a18.44,18.44,0,0,0-2.47.23C38.4,46.44,18.41,70.23,18.39,98.1a56.07,56.07,0,0,0,5.12,23.67A56.86,56.86,0,0,0,95,151.67a55,55,0,0,0,28.46-22.89c2.76-4.44,5.84-8.62,10.28-11.58a12.57,12.57,0,0,1,15.22,0,31.2,31.2,0,0,1,6.72,6.51c2.32,2.85,3.88,6.23,6.2,9.06,12,14.66,26.92,22.33,44.66,22.33a67,67,0,0,0,9.94-.76c27.8-4.17,48.48-29.16,47.79-57.26C263.86,79.82,257,65.36,243.71,54.25Zm-182.5,6a2,2,0,0,0,.68,1.07c4.46,3.33,2.53,15.51,1.33,18.18a2.07,2.07,0,0,0-.14.42l-.06.3a31.06,31.06,0,0,1-10.09.16l6-5.67a2,2,0,0,0,.62-1.39A2.06,2.06,0,0,0,59,71.87a1.93,1.93,0,0,0-1.39-.62,2,2,0,0,0-1.42.55l-7.43,7.1-.15.15a5.94,5.94,0,0,1-2.23-1.92,2,2,0,0,0-2.71-.76,2,2,0,0,0-.76,2.7,1.46,1.46,0,0,0,.09.15c3.61,5.78,13.86,5.92,19.35,5.13-1.07,8.55.37,15.2,4.25,19.79a18.45,18.45,0,0,0,6.3,4.76,1.57,1.57,0,0,0,.37.18A38.34,38.34,0,0,0,90,111.79c-.74,5.61-1.2,14.54,2.17,19.3A38.67,38.67,0,1,1,61.21,60.22ZM76.42,94.79a2,2,0,0,0,2.71.1l7.08-6.52c3.72,3.95,5.19,10.48,4.37,19.44l-.42.06a37.73,37.73,0,0,1-12.51-1.33l6.41-6.09a2,2,0,1,0-2.73-2.94l-7.71,7.34a14.39,14.39,0,0,1-4-3.25l-.15-.17c-3.2-4-4.21-10-3-17.85,7.07-.74,12.64,0,16.57,2.31L76.43,92A2,2,0,0,0,76.42,94.79ZM95.69,129.2c-2.7-2.95-2.6-11.16-1.63-17.7a43.58,43.58,0,0,1,10.39.67l-5.08,4.67a2,2,0,0,0,2.71,2.9l6.62-6.08a5.33,5.33,0,0,1,1.11.91A39,39,0,0,1,95.69,129.2Zm15.9-18.34c-4.34-3.2-12-3.52-17-3.34.84-10.13-1.15-17.65-5.91-22.34a15.71,15.71,0,0,0-1.2-1.07l-.08,0c-4.6-3.71-11.32-5.24-20-4.56,1.35-4.59,2.77-15.62-2.28-20.63a38.66,38.66,0,0,1,46.46,52Zm96.67,23.86a38.47,38.47,0,0,1-8.51-1l39.77-60.44a38.62,38.62,0,0,1-31.26,61.41ZM175.87,74.91,199.4,98.44h0l11.28,11.27-15,22.85a38.6,38.6,0,0,1-19.77-57.66Zm32.39-17.59A38.53,38.53,0,0,1,236.81,70l-5.76,8.75L225.5,73.6a2,2,0,0,0-2.78,3l6.06,5.61-15.81,24-9.52-9.52,14.37-22.12a2,2,0,1,0-3.42-2.23l-13.9,21.4L194.77,88l10.55-14.71A2,2,0,1,0,202,71l-4.07,5.68-4.78-4.72a2,2,0,1,0-2.87,2.9L195.51,80l-3.67,5.12L178.3,71.57A38.62,38.62,0,0,1,208.26,57.32Z" fill="#0672ac"/><path d="M42.39,172.2l21.36,54.35L85.22,172.2H96.86L69.35,239.3H58.16L30.65,172.2Z" fill="#0672ac"/><path d="M105.35,239.3V172.2h11.07v67.1Z" fill="#0672ac"/><path d="M162.72,240.87c-20.58,0-33.88-15.66-33.88-35,0-19.57,13.3-35.11,33.88-35.11,15.43,0,22.59,8.39,22.59,8.39l-6.37,8.61a22.61,22.61,0,0,0-16-6.49c-13.3,0-22.59,10.74-22.59,24.6s9.29,24.38,22.59,24.38a22.78,22.78,0,0,0,16-6.37l6.37,8.5S178.15,240.87,162.72,240.87Z" fill="#0672ac"/><path d="M206.78,210v19.46h36.68v9.84H195.71V172.2h47.75V182H206.78v18.57H238V210Z" fill="#0672ac"/></svg>