<?xml version="1.0" encoding="UTF-8"?>
<svg id="Layer_1" data-name="Layer 1" xmlns="http://www.w3.org/2000/svg" xmlns:xlink="http://www.w3.org/1999/xlink" viewBox="0 0 61.37 65.55">
  <defs>
    <style>
      .cls-1 {
        fill: none;
      }

      .cls-2 {
        fill: #1c75bc;
      }

      .cls-3 {
        clip-path: url(#clippath);
      }
    </style>
    <clipPath id="clippath">
      <circle class="cls-1" cx="30.68" cy="30.68" r="30.68"/>
    </clipPath>
  </defs>
  <g class="cls-3">
    <g>
      <path class="cls-2" d="M15.32,39.43h-3.32c-.74,0-1.35-.61-1.35-1.35v-14.04c0-.74.61-1.35,1.35-1.35h3.32c.74,0,1.35.61,1.35,1.35v4.68c-1.53,2.85-1.47,6.14,0,8.1v1.25c0,.74-.61,1.35-1.35,1.35Z"/>
      <path class="cls-2" d="M38.69,26.61h-16.69c-6.79,0-8.04,12.82,1.05,12.82,6.21.05,5.15-4.85,7.29-5.15,2.15.3,1.08,5.2,7.29,5.15,9.09,0,7.84-12.82,1.05-12.82ZM25.82,34.93h-4.72c-.62,0-1.13-.51-1.13-1.13s.51-1.13,1.13-1.13h4.72c.62,0,1.13.51,1.13,1.13s-.51,1.13-1.13,1.13ZM40.96,33.74c0,.62-.51,1.13-1.13,1.13h-4.72c-.62,0-1.13-.51-1.13-1.13h0c0-.62.51-1.13,1.13-1.13h4.72c.62,0,1.13.51,1.13,1.13h0Z"/>
      <path class="cls-2" d="M9.2,25.16l-2,1.51c-.43.32-.68.83-.68,1.36v5.91c0,.58.27,1.13.74,1.49l1.94,1.47v-11.74Z"/>
      <path class="cls-2" d="M18.46,26.88c1.07-.81,2.17-1.39,3.36-1.32-.05-4.03.67-7.92,1.64-11.77,0,0-5.42,3.96-5,13.09Z"/>
      <path class="cls-2" d="M22.6,25.38h3.6c-.27-4.68.47-9.43,2.04-14.25-1.28.04-2.46.39-3.42,1.38-1.71,3.57-2.24,8.02-2.22,12.87Z"/>
      <path class="cls-2" d="M26.95,25.38h7.47s0-15.07-3.74-14.77-3.74,14.77-3.74,14.77Z"/>
      <path class="cls-2" d="M42.96,26.88c-1.07-.81-2.17-1.39-3.36-1.32.05-4.03-.67-7.92-1.64-11.77,0,0,5.42,3.96,5,13.09Z"/>
      <path class="cls-2" d="M38.86,25.38h-3.6c.27-4.68-.47-9.43-2.04-14.25,1.28.04,2.46.39,3.42,1.38,1.71,3.57,2.24,8.02,2.22,12.87Z"/>
      <path class="cls-2" d="M45.47,39.43h3.32c.74,0,1.35-.61,1.35-1.35v-14.04c0-.74-.61-1.35-1.35-1.35h-3.32c-.74,0-1.35.61-1.35,1.35v4.68c1.53,2.85,1.47,6.14,0,8.1v1.25c0,.74.61,1.35,1.35,1.35Z"/>
      <path class="cls-2" d="M51.6,25.16l2,1.51c.43.32.68.83.68,1.36v5.91c0,.58-.27,1.13-.74,1.49l-1.94,1.47v-11.74Z"/>
      <circle class="cls-2" cx="16.75" cy="6.53" r="2.08"/>
      <rect class="cls-2" x="15.93" y="9.56" width="1.86" height="12.15" rx=".93" ry=".93"/>
      <path class="cls-2" d="M18.43,39.43v28.35c.6.52,1.74.97,3.03,1.41l.38-28.32c-1.35-.25-2.49-.73-3.4-1.44Z"/>
      <path class="cls-2" d="M25.99,40.59l.38,29.64c-1.96-.02-3.56-.21-3.77-1.04l-.02-28.35c.95.03,2.14-.08,3.41-.25Z"/>
      <path class="cls-2" d="M42.83,38.99v28.92c-.6.52-1.73.85-3.02,1.28l-.38-28.76c1.35-.25,2.49-.73,3.4-1.44Z"/>
      <path class="cls-2" d="M35.27,40.36l.02,29.86c1.93-.35,2.93-.66,3.37-.98l.02-28.86c-.95.03-2.14.14-3.41-.03Z"/>
      <path class="cls-2" d="M32.29,38.05c-.59-.73-1.02-1.78-1.76-1.78s-1.46,1.17-2.07,2.19c-.65,1.08-1.38,1.72-1.51,1.56l.55,30.21c2.23.61,4.54.57,6.92,0v-30.11c-1.02-.4-2.13-2.07-2.13-2.07ZM32.66,40.97c-.7,1.1-1.64,1.32-2.27,1.32-.09,0-.18,0-.25-.01-.95-.09-1.87-.67-2.14-1.36-.07-.18.02-.38.2-.45.18-.07.38.01.45.2.16.39.8.85,1.56.92.54.05,1.3-.08,1.87-.98.1-.16.32-.21.48-.11.16.1.21.32.11.48Z"/>
      <path class="cls-2" d="M7.41,37.93s4.12-.51,3.24,10.12c0,0-.46,1.78,1.3,2.5l4.92-.05v1.68s-7.67,1.9-9.01,0c-1.56-2.21-.44-14.25-.44-14.25Z"/>
      <path class="cls-2" d="M6.81,37.93s-1.05,13.64,0,15.13,10.06,0,10.06,0v2.62H7.86c-2.46-.48-3.57-1.99-3.61-4.31v-10.79c.29-1.34,1.08-2.65,2.56-2.65Z"/>
      <path class="cls-2" d="M51.14,39.3s-.14.02.03,2.01c0,0,.01,1.78-1.74,2.5l-4.92-.05v1.68s7.67,1.9,9.01,0c.96-1.36.72-8.85.72-8.85l-3.1,2.72Z"/>
      <path class="cls-2" d="M55.22,34.38c.24,4.13.07,10.91-.65,11.94-1.05,1.49-10.06,0-10.06,0v2.62s9.01,0,9.01,0c2.46-.48,3.57-1.99,3.61-4.31v-10.79c-.21-.95-.76-2.36-1.95-2.35l.03,2.9Z"/>
    </g>
  </g>
</svg>