<svg id="Layer_1" data-name="Layer 1" xmlns="http://www.w3.org/2000/svg" viewBox="0 0 164.83 42.98"><path d="M62.61,10.66A13,13,0,0,0,54.07,7.5H53.8c-1.94,0-3.88-.07-5.82-.07l-10.28,0c-6.06,0-12.12,0-18.17.19a4.07,4.07,0,0,0-.61.05,14,14,0,0,0,2.41,27.77,13.74,13.74,0,0,0,4.81-.87,13.43,13.43,0,0,0,7-5.61,8.8,8.8,0,0,1,2.52-2.84,3.06,3.06,0,0,1,3.73,0A7.33,7.33,0,0,1,41,27.7c.57.7.95,1.53,1.52,2.23a13.71,13.71,0,0,0,11,5.47,15.8,15.8,0,0,0,2.44-.19,13.93,13.93,0,0,0,11.72-14A13.59,13.59,0,0,0,62.61,10.66ZM17.85,12.13a.5.5,0,0,0,.17.26c1.09.82.62,3.8.33,4.46a.3.3,0,0,0,0,.1V17a7.37,7.37,0,0,1-2.48,0l1.46-1.39a.5.5,0,0,0,.16-.34A.57.57,0,0,0,17.3,15a.53.53,0,0,0-.34-.15.52.52,0,0,0-.35.14l-1.82,1.74,0,0a1.48,1.48,0,0,1-.54-.48.5.5,0,0,0-.67-.18.48.48,0,0,0-.25.42.44.44,0,0,0,.07.24.05.05,0,0,0,0,0c.88,1.41,3.4,1.45,4.74,1.25a6.1,6.1,0,0,0,1.05,4.86,4.36,4.36,0,0,0,1.54,1.16l.09.05a9.46,9.46,0,0,0,4.1.66c-.18,1.38-.29,3.57.54,4.74a9.49,9.49,0,1,1-7.59-17.38Zm3.73,8.47a.49.49,0,0,0,.67,0L24,19c.92,1,1.28,2.57,1.08,4.77H25a9.29,9.29,0,0,1-3.06-.33L23.46,22a.49.49,0,1,0-.67-.72l-1.89,1.8a3.28,3.28,0,0,1-1-.8l0,0c-.78-1-1-2.44-.74-4.37a6.7,6.7,0,0,1,4.07.56l-1.63,1.5A.48.48,0,0,0,21.58,20.6ZM26.31,29c-.66-.72-.64-2.73-.4-4.34a10.4,10.4,0,0,1,2.55.17L27.21,26a.49.49,0,0,0,.67.71l1.62-1.49a1.44,1.44,0,0,1,.27.22A9.47,9.47,0,0,1,26.31,29Zm3.9-4.49A7.23,7.23,0,0,0,26,23.73c.2-2.49-.29-4.33-1.45-5.48a3.73,3.73,0,0,0-.3-.26l0,0a6.83,6.83,0,0,0-4.9-1.12c.33-1.12.68-3.83-.56-5.05a9.21,9.21,0,0,1,2.64-.38,9.5,9.5,0,0,1,9.49,9.49A9.61,9.61,0,0,1,30.21,24.55Zm23.7,5.85a9.54,9.54,0,0,1-2.08-.24l9.75-14.82a9.4,9.4,0,0,1,1.82,5.57A9.5,9.5,0,0,1,53.91,30.4ZM46,15.73l5.77,5.77h0l2.77,2.77-3.69,5.6A9.46,9.46,0,0,1,46,15.73Zm7.94-4.31a9.48,9.48,0,0,1,7,3.1L59.5,16.67l-1.36-1.26a.5.5,0,0,0-.71,0,.51.51,0,0,0,0,.71l1.48,1.38-3.87,5.89-2.34-2.33,3.53-5.43a.5.5,0,0,0-.84-.55L52,20.35,50.61,19l2.58-3.61a.51.51,0,0,0-.11-.7.5.5,0,0,0-.7.12l-1,1.39L50.21,15a.5.5,0,0,0-.71.71L50.79,17l-.9,1.25-3.32-3.32A9.45,9.45,0,0,1,53.91,11.42Z" style="fill:#1c75bc"/><path d="M78.26,17.66H74.75V7.72h3.51a4.76,4.76,0,0,1,5.12,5A4.76,4.76,0,0,1,78.26,17.66ZM76.39,16.2h1.78a3.36,3.36,0,0,0,3.54-3.51,3.33,3.33,0,0,0-3.54-3.51H76.39Z" style="fill:#1c75bc"/><path d="M85.66,17.66V7.72H87.3v9.94Z" style="fill:#1c75bc"/><path d="M93.25,16.37c1.34,0,1.92-.57,1.92-1.38s-.47-1.14-2.26-1.69c-2.21-.66-3.29-1.41-3.29-3,0-1.71,1.29-2.84,3.64-2.84a5,5,0,0,1,3.47,1l-.9,1.35A4.09,4.09,0,0,0,93.26,9c-1.12,0-1.84.44-1.84,1.24s.53,1,2.21,1.51c2.4.68,3.36,1.55,3.36,3.1s-1.21,3-3.69,3a5.41,5.41,0,0,1-3.77-1.24l.9-1.24A4.8,4.8,0,0,0,93.25,16.37Z" style="fill:#1c75bc"/><path d="M103.57,17.89a4.93,4.93,0,0,1-5-5.18,4.93,4.93,0,0,1,5-5.21,4.47,4.47,0,0,1,3.35,1.25L106,10a3.34,3.34,0,0,0-2.37-1,3.4,3.4,0,0,0-3.34,3.65A3.37,3.37,0,0,0,106,15.37l1,1.26A4.45,4.45,0,0,1,103.57,17.89Z" style="fill:#1c75bc"/><path d="M108.05,12.71a5,5,0,1,1,10,0,5,5,0,1,1-10,0Zm8.28,0a3.31,3.31,0,1,0-6.59,0,3.31,3.31,0,1,0,6.59,0Z" style="fill:#1c75bc"/><path d="M120.52,7.72l3.17,8.05,3.18-8h1.72l-4.07,9.94h-1.66l-4.08-9.94Z" style="fill:#1c75bc"/><path d="M131.91,13.32V16.2h5.43v1.46h-7.07V7.72h7.07V9.18h-5.43v2.75h4.62v1.39Z" style="fill:#1c75bc"/><path d="M147.54,11.05a3.09,3.09,0,0,1-2.11,3.06v.09l2.39,3.23v.23H146l-2.37-3.28h-2.37v3.28h-1.64V7.72h4.09C146.06,7.72,147.54,9,147.54,11.05Zm-3.9-1.87h-2.37v3.74h2.47c1.21,0,2.09-.6,2.09-1.86S145,9.18,143.64,9.18Z" style="fill:#1c75bc"/><path d="M157.23,7.72l-3.59,6.13v3.81H152V13.85L148.4,7.72h1.84l2.22,3.89.36.81.37-.81,2.22-3.89Z" style="fill:#1c75bc"/><path d="M76.29,29.58v2.26h4.25V33H75V25.2h5.53v1.14H76.29v2.15h3.62v1.09Z" style="fill:#1c75bc"/><path d="M87.76,33l-4.47-5.52V33H82V25.2h1l4.46,5.5V25.2h1.28V33Z" style="fill:#1c75bc"/><path d="M91.06,25.2l2.48,6.3L96,25.2h1.34L94.19,33h-1.3L89.7,25.2Z" style="fill:#1c75bc"/><path d="M98.36,33V25.2h1.28V33Z" style="fill:#1c75bc"/><path d="M107.75,27.81a2.41,2.41,0,0,1-1.64,2.39v.07L108,32.8V33h-1.41l-1.85-2.57h-1.85V33h-1.29V25.2h3.2C106.6,25.2,107.75,26.19,107.75,27.81Zm-3-1.47h-1.85v2.93h1.93c.94,0,1.63-.46,1.63-1.45S105.75,26.34,104.71,26.34Z" style="fill:#1c75bc"/><path d="M108.83,29.1a3.9,3.9,0,1,1,7.79,0,3.9,3.9,0,1,1-7.79,0Zm6.48,0a2.59,2.59,0,1,0-5.16,0,2.59,2.59,0,1,0,5.16,0Z" style="fill:#1c75bc"/><path d="M123.81,33l-4.47-5.52V33h-1.28V25.2h1l4.46,5.5V25.2h1.28V33Z" style="fill:#1c75bc"/><path d="M130.67,30.49h-.47L128,27.6V33h-1.28V25.2h1l2.76,3.63,2.78-3.63h.95l0,7.78h-1.27V27.56Z" style="fill:#1c75bc"/><path d="M137.38,29.58v2.26h4.25V33H136.1V25.2h5.53v1.14h-4.25v2.15H141v1.09Z" style="fill:#1c75bc"/><path d="M148.85,33l-4.47-5.52V33h-1.29V25.2h1l4.46,5.5V25.2h1.28V33Z" style="fill:#1c75bc"/><path d="M157.23,25.2v1.14h-2.44V33h-1.28V26.34h-2.43V25.2Z" style="fill:#1c75bc"/></svg>